<?xml version="1.0" standalone="no"?>
<!DOCTYPE svg PUBLIC "-//W3C//DTD SVG 20010904//EN"
 "http://www.w3.org/TR/2001/REC-SVG-20010904/DTD/svg10.dtd">
<svg version="1.0" xmlns="http://www.w3.org/2000/svg"
 width="260.000000pt" height="260.000000pt" viewBox="0 0 260.000000 260.000000"
 preserveAspectRatio="xMidYMid meet">
<metadata>
Created by potrace 1.11, written by Peter Selinger 2001-2013
</metadata>
<g transform="translate(0.000000,260.000000) scale(0.100000,-0.100000)"
fill="#000000" stroke="none">
<path d="M646 1894 c-273 -53 -422 -204 -463 -469 -9 -57 -9 -210 0 -255 16
-84 18 -91 34 -133 62 -153 155 -243 315 -300 189 -69 469 -59 643 24 51 24
62 31 96 62 22 20 45 16 75 -12 11 -10 54 -34 95 -53 203 -97 532 -88 725 19
115 63 215 205 245 348 19 88 16 286 -5 365 -17 67 -55 157 -78 187 -43 55
-134 133 -184 158 -177 85 -456 99 -649 33 -50 -18 -117 -55 -182 -103 -9 -7
-16 -6 -21 1 -13 19 -145 94 -187 105 -145 40 -327 49 -459 23z m294 -391 c81
-19 139 -75 160 -151 15 -57 3 -130 -28 -172 -56 -76 -179 -110 -325 -90 -134
19 -207 91 -207 204 0 65 23 128 56 158 27 23 89 49 144 58 45 8 153 4 200 -7z
m994 -14 c29 -10 62 -29 74 -42 77 -82 68 -246 -17 -306 -65 -46 -173 -66
-282 -51 -132 18 -197 79 -206 195 -8 92 36 169 115 202 84 35 227 36 316 2z"/>
</g>
</svg>
